<svg xmlns="http://www.w3.org/2000/svg" width="163" height="36" fill="none">
    <path fill="#fff"
          d="M34.925 20.834a8.543 8.543 0 0 0-1.395-9.663l-4.146-4.432-4.309-4.273a8.49 8.49 0 0 0-9.6-1.656L9.99 3.393 4.604 6.18a8.532 8.532 0 0 0-4.537 8.64l.756 6.029.98 5.996a8.517 8.517 0 0 0 6.795 6.996l5.953 1.142 5.991.919a8.5 8.5 0 0 0 8.737-4.317l2.923-5.322 2.723-5.429ZM52.194 27.242c3.718 0 6.006-2.222 6.006-5.016 0-3.256-1.958-4.29-5.764-4.774-2.42-.352-2.926-.88-2.926-2.002 0-1.056.792-1.782 2.354-1.782s2.398.66 2.618 2.09h3.278c-.286-3.124-2.354-4.708-5.896-4.708-3.476 0-5.72 2.002-5.72 4.686 0 3.036 1.65 4.246 5.676 4.774 2.31.352 2.97.792 2.97 2.046 0 1.232-1.034 2.09-2.596 2.09-2.332 0-2.926-1.166-3.08-2.574h-3.41c.198 3.146 2.178 5.17 6.49 5.17Zm12.488-.022c.858 0 1.496-.154 1.936-.308v-2.464c-.374.154-.726.22-1.21.22-.814 0-1.276-.44-1.276-1.364V17.76h2.42v-2.266h-2.42v-2.486h-3.168v2.486H59.49v2.266h1.474v5.83c0 2.398 1.298 3.63 3.718 3.63Zm4.091-.22h3.19v-5.764c0-2.2 1.364-2.97 3.718-2.948v-2.97c-1.87.022-2.992.836-3.718 2.376v-2.2h-3.19V27Zm14.09.242c3.145 0 5.125-1.386 5.5-3.872h-3.015c-.198.968-.924 1.606-2.398 1.606-1.738 0-2.772-1.1-2.86-3.014h8.294v-.88c0-4.114-2.64-5.852-5.61-5.852-3.344 0-5.918 2.354-5.918 5.984v.176c0 3.674 2.53 5.852 6.006 5.852Zm-2.729-7.238c.242-1.628 1.21-2.574 2.64-2.574 1.518 0 2.398.836 2.508 2.574h-5.148Zm13.548 7.238c1.804 0 2.816-.704 3.476-1.628V27h3.102v-7.502c0-3.124-2.002-4.268-4.818-4.268s-4.972 1.21-5.17 3.938h3.014c.132-.99.704-1.628 1.958-1.628 1.452 0 1.87.748 1.87 2.112v.462h-1.298c-3.52 0-5.984 1.012-5.984 3.696 0 2.42 1.76 3.432 3.85 3.432Zm.946-2.222c-1.166 0-1.672-.55-1.672-1.386 0-1.232 1.078-1.628 2.926-1.628h1.232v.968c0 1.276-1.078 2.046-2.486 2.046Zm8.37 1.98h3.19v-6.798c0-1.562.99-2.354 2.222-2.354 1.122 0 1.804.66 1.804 2.134V27h3.168v-6.798c0-1.562.99-2.354 2.222-2.354 1.144 0 1.804.66 1.804 2.134V27h3.168v-7.37c0-3.058-1.65-4.4-3.784-4.4-1.452 0-2.948.616-3.872 2.002-.55-1.364-1.694-2.002-3.212-2.002-1.716 0-2.948.946-3.52 2.024v-1.76h-3.19V27Zm20.391 0h3.168V10.28h-3.168V27Zm6.166 0h3.168V15.494h-3.168V27Zm1.562-13.068c1.034 0 1.826-.748 1.826-1.738s-.792-1.738-1.826-1.738c-1.012 0-1.804.748-1.804 1.738s.792 1.738 1.804 1.738ZM135.654 27h3.19v-6.644c0-1.694 1.034-2.53 2.398-2.53 1.408 0 2.024.748 2.024 2.31V27h3.19v-7.326c0-3.08-1.606-4.444-3.872-4.444-1.914 0-3.168.946-3.74 2.09v-1.826h-3.19V27Zm18.837.242c3.146 0 5.126-1.386 5.5-3.872h-3.014c-.198.968-.924 1.606-2.398 1.606-1.738 0-2.772-1.1-2.86-3.014h8.294v-.88c0-4.114-2.64-5.852-5.61-5.852-3.344 0-5.918 2.354-5.918 5.984v.176c0 3.674 2.53 5.852 6.006 5.852Zm-2.728-7.238c.242-1.628 1.21-2.574 2.64-2.574 1.518 0 2.398.836 2.508 2.574h-5.148Z"/>
    <path fill="#3056d2"
          d="M17.75 29.3c4.74 0 7.89-2.91 7.89-6.63 0-4.29-2.61-5.73-7.65-6.42-3.72-.54-4.44-1.41-4.44-3.15 0-1.65 1.26-2.82 3.69-2.82 2.46 0 3.75.96 4.14 3.21h3.66c-.42-4.11-3.18-6.21-7.8-6.21-4.47 0-7.47 2.64-7.47 6.15 0 4.02 2.43 5.58 7.56 6.27 3.48.57 4.47 1.32 4.47 3.3 0 1.98-1.68 3.3-4.05 3.3-3.63 0-4.5-1.8-4.77-3.96H9.14c.3 4.05 2.76 6.96 8.61 6.96Z"/>
</svg>