<svg xmlns="http://www.w3.org/2000/svg" width="146" height="36" fill="none">
    <path fill="#000"
          d="M34.925 20.834a8.543 8.543 0 0 0-1.395-9.663l-4.146-4.432-4.309-4.273a8.49 8.49 0 0 0-9.6-1.656L9.99 3.393 4.604 6.18a8.532 8.532 0 0 0-4.537 8.64l.756 6.029.98 5.996a8.517 8.517 0 0 0 6.795 6.996l5.953 1.142 5.991.919a8.5 8.5 0 0 0 8.737-4.317l2.923-5.322 2.723-5.429ZM49.29 27h3.432l2.882-10.868L58.442 27h3.63L65.9 11.27h-3.3l-2.552 10.934-2.794-10.934h-3.036l-2.684 10.868L49.07 11.27h-3.608L49.29 27Zm22.853-2.178c-1.804 0-2.816-1.32-2.816-3.52v-.176c0-2.2 1.056-3.476 2.816-3.476 1.782 0 2.816 1.32 2.816 3.52v.154c0 2.178-1.034 3.498-2.816 3.498Zm-.022 2.42c3.454 0 6.072-2.31 6.072-5.94v-.176c0-3.586-2.596-5.896-6.05-5.896-3.454 0-6.072 2.354-6.072 5.962v.176c0 3.586 2.618 5.874 6.05 5.874Zm8.21-.242h3.19v-5.764c0-2.2 1.365-2.97 3.719-2.948v-2.97c-1.87.022-2.992.836-3.718 2.376v-2.2h-3.19V27Zm9.003 0h3.19v-5.434L96.33 27h3.608l-4.51-6.27 4.18-5.236H96.22l-3.696 4.862V10.28h-3.19V27Zm19.067.242c2.86 0 5.016-2.134 5.016-5.94v-.176c0-3.806-2.2-5.896-5.016-5.896-1.694 0-3.036.968-3.674 2.068V10.28h-3.19V27h3.19v-1.826c.594 1.188 1.892 2.068 3.674 2.068Zm-.946-2.486c-1.738 0-2.838-1.122-2.838-3.432v-.176c0-2.31 1.144-3.476 2.816-3.476 1.606 0 2.75 1.144 2.75 3.476v.176c0 2.244-.968 3.432-2.728 3.432ZM115.633 27h3.168V10.28h-3.168V27Zm11.446-2.178c-1.804 0-2.816-1.32-2.816-3.52v-.176c0-2.2 1.056-3.476 2.816-3.476 1.782 0 2.816 1.32 2.816 3.52v.154c0 2.178-1.034 3.498-2.816 3.498Zm-.022 2.42c3.454 0 6.072-2.31 6.072-5.94v-.176c0-3.586-2.596-5.896-6.05-5.896-3.454 0-6.072 2.354-6.072 5.962v.176c0 3.586 2.618 5.874 6.05 5.874Zm6.296-.242h3.278l2.486-3.872 2.42 3.872h3.674l-4.048-6.116 3.674-5.39h-3.3l-2.112 3.454-2.156-3.454h-3.652l3.674 5.632L133.353 27Z"/>
    <path fill="#fff"
          d="M11.9 27h3.12l2.62-9.88L20.22 27h3.3L27 12.7h-3l-2.32 9.94-2.54-9.94h-2.76l-2.44 9.88-2.24-9.88H8.42L11.9 27Z"/>
</svg>