<?xml version="1.0" standalone="no"?>
<!DOCTYPE svg PUBLIC "-//W3C//DTD SVG 20010904//EN"
 "http://www.w3.org/TR/2001/REC-SVG-20010904/DTD/svg10.dtd">
<svg version="1.0" xmlns="http://www.w3.org/2000/svg"
 width="700.000000pt" height="700.000000pt" viewBox="0 0 700.000000 700.000000"
 preserveAspectRatio="xMidYMid meet">
<metadata>
Created by potrace 1.14, written by Peter Selinger 2001-2017
</metadata>
<g transform="translate(0.000000,700.000000) scale(0.100000,-0.100000)"
fill="#000000" stroke="none">
<path d="M3565 6994 c-148 -16 -292 -50 -430 -101 -159 -59 -1226 -572 -1725
-830 -294 -152 -569 -297 -610 -321 -383 -230 -662 -618 -759 -1057 -29 -134
-44 -296 -38 -420 12 -227 155 -1299 257 -1925 106 -653 123 -735 175 -870 92
-241 200 -407 384 -590 224 -223 460 -360 753 -436 168 -43 1305 -252 1708
-314 250 -38 529 -81 620 -95 208 -32 356 -40 492 -26 290 29 535 117 778 278
140 94 325 274 420 410 111 159 644 1143 947 1748 157 314 300 608 318 655
138 355 146 756 23 1125 -61 183 -175 387 -301 535 -176 209 -924 990 -1340
1400 -517 509 -573 556 -782 660 -236 117 -444 169 -699 175 -83 2 -169 1
-191 -1z m-1076 -3406 c118 -519 216 -946 220 -950 3 -4 112 420 240 943 l235
949 269 -2 270 -3 22 -85 c13 -47 123 -478 246 -959 131 -512 225 -865 229
-855 4 11 105 443 226 961 l219 943 294 0 c230 0 292 -3 289 -12 -2 -7 -155
-633 -339 -1390 l-334 -1378 -322 0 -322 0 -9 32 c-5 18 -116 446 -248 950
-131 505 -241 918 -244 918 -3 0 -118 -426 -256 -948 l-251 -947 -306 -3 -305
-2 -21 87 c-11 49 -162 671 -336 1382 -173 712 -315 1299 -315 1303 0 4 143 8
318 8 l318 0 213 -942z"/>
</g>
</svg>
