<svg width="38" height="43" viewBox="0 0 38 43" fill="none" xmlns="http://www.w3.org/2000/svg">
    <path d="M31.9474 30.9829C34.6995 32.1523 36.3684 33.6864 36.3684 35.3686C36.3684 39.0314 28.4503 42.0002 18.6842 42.0002C8.9181 42.0002 1 39.0314 1 35.3686C1 33.6886 2.66895 32.1501 5.42105 30.9829"
          stroke="black" stroke-width="2" stroke-linecap="round" stroke-linejoin="round"/>
    <path fill-rule="evenodd" clip-rule="evenodd"
          d="M20.3154 34.65L20.3265 34.6389L20.353 34.608L20.4525 34.4975L20.8194 34.0863C22.6562 31.9944 24.3885 29.8129 26.0097 27.5498C27.4289 25.5603 28.8834 23.3056 29.9909 21.0663C31.0741 18.8779 31.9472 16.4706 31.9472 14.2446C31.9472 6.34642 26.1601 0 18.6841 0C11.2081 0 5.4209 6.34421 5.4209 14.2446C5.4209 16.4706 6.29406 18.8779 7.37721 21.0663C8.48469 23.3056 9.94143 25.5603 11.3562 27.5498C13.0858 29.9619 14.9415 32.281 16.9156 34.4975L17.0151 34.608L17.0416 34.6389L17.0527 34.65C17.2598 34.8765 17.5118 35.0574 17.7927 35.1812C18.0736 35.3049 18.3771 35.3689 18.6841 35.3689C18.991 35.3689 19.2946 35.3049 19.5754 35.1812C19.8563 35.0574 20.1083 34.8765 20.3154 34.65ZM18.6841 8.8421C17.5115 8.8421 16.387 9.30789 15.5579 10.137C14.7288 10.9661 14.263 12.0906 14.263 13.2632C14.263 14.4357 14.7288 15.5602 15.5579 16.3893C16.387 17.2184 17.5115 17.6842 18.6841 17.6842C19.8566 17.6842 20.9811 17.2184 21.8102 16.3893C22.6393 15.5602 23.1051 14.4357 23.1051 13.2632C23.1051 12.0906 22.6393 10.9661 21.8102 10.137C20.9811 9.30789 19.8566 8.8421 18.6841 8.8421Z"
          fill="black"/>
</svg>
